<?xml version="1.0" encoding="utf-8"?>
<!-- Generator: Adobe Illustrator 19.1.0, SVG Export Plug-In . SVG Version: 6.00 Build 0)  -->
<svg version="1.1" id="Layer_1" xmlns="http://www.w3.org/2000/svg" xmlns:xlink="http://www.w3.org/1999/xlink" x="0px" y="0px"
	 width="2160" height="2160" viewBox="0 0 2160 2160" style="enable-background:new 0 0 2160 2160;" xml:space="preserve">
<style type="text/css">
	.st0{fill:#C78D2B;}
	.st1{fill-rule:evenodd;clip-rule:evenodd;fill:#93C13E;}
</style>
<rect x="1205.3" y="80.2" class="st0" width="128.7" height="1955.9"/>
<rect x="801.3" y="80.2" class="st0" width="128.7" height="1955.9"/>
<g>
	<defs>
		<path id="SVGID_1_" d="M1085,74.8c543.9,0,984.9,440.9,984.9,984.9c0,543.9-440.9,984.9-984.9,984.9
			c-543.9,0-984.9-440.9-984.9-984.9C100.2,515.8,541.1,74.8,1085,74.8L1085,74.8z"/>
	</defs>
	<use xlink:href="#SVGID_1_"  style="overflow:visible;fill-rule:evenodd;clip-rule:evenodd;fill:#FFFFFF;"/>
	<clipPath id="SVGID_2_">
		<use xlink:href="#SVGID_1_"  style="overflow:visible;"/>
	</clipPath>
	
		<use xlink:href="#SVGID_1_"  style="overflow:visible;fill-rule:evenodd;clip-rule:evenodd;fill:none;stroke:#4877BB;stroke-miterlimit:10;"/>
</g>
<g>
	<defs>
		<polygon id="SVGID_3_" points="1208.1,80.2 1336.6,80.2 1336.6,2044.6 1208.1,2044.6 1208.1,80.2 		"/>
	</defs>
	<use xlink:href="#SVGID_3_"  style="overflow:visible;fill-rule:evenodd;clip-rule:evenodd;fill:#FCF2DA;"/>
	<clipPath id="SVGID_4_">
		<use xlink:href="#SVGID_3_"  style="overflow:visible;"/>
	</clipPath>
</g>
<g>
	<defs>
		<polygon id="SVGID_5_" points="801.4,80.2 929.8,80.2 929.8,2044.6 801.4,2044.6 801.4,80.2 		"/>
	</defs>
	<use xlink:href="#SVGID_5_"  style="overflow:visible;fill-rule:evenodd;clip-rule:evenodd;fill:#FCF2DA;"/>
	<clipPath id="SVGID_6_">
		<use xlink:href="#SVGID_5_"  style="overflow:visible;"/>
	</clipPath>
</g>
<g>
	<defs>
		<path id="SVGID_7_" d="M1106.4,733.2c-18.7,29.4-40.5,87.3-26.8,133.8c13.7,46.5,64,42.5,74.9-5.3c0,0,15.4-34-10.7-91l-21.4-32.1
			c0,0-3.7-13.4-10.7-10.7C1111.8,727.8,1110.5,726.9,1106.4,733.2L1106.4,733.2z"/>
	</defs>
	<use xlink:href="#SVGID_7_"  style="overflow:visible;fill-rule:evenodd;clip-rule:evenodd;fill:#93C13E;"/>
	<clipPath id="SVGID_8_">
		<use xlink:href="#SVGID_7_"  style="overflow:visible;"/>
	</clipPath>
</g>
<g>
	<defs>
		<path id="SVGID_9_" d="M1594.7,613.3c-52.9,18.5-189.3,37.9-204.5,176.8c0,0,21.1,78.9,89,57.2c0,0,95.4-16.7,139.4-156.7
			l11.6-47.1C1630.2,643.5,1639.3,597.7,1594.7,613.3L1594.7,613.3z"/>
	</defs>
	<use xlink:href="#SVGID_9_"  style="overflow:visible;fill-rule:evenodd;clip-rule:evenodd;fill:#93C13E;"/>
	<clipPath id="SVGID_10_">
		<use xlink:href="#SVGID_9_"  style="overflow:visible;"/>
	</clipPath>
</g>
<g>
	<defs>
		<path id="SVGID_11_" d="M1400.8,353.1c-28.4,29.8-100.4,88.8-69.6,165.9c30.8,77.2,103.8,4.2,112.4-32.1c8.6-36.4,0-123.1,0-123.1
			c0,0-0.4-53.6-32.1-21.4C1411.5,342.4,1429.2,323.3,1400.8,353.1L1400.8,353.1z"/>
	</defs>
	<use xlink:href="#SVGID_11_"  style="overflow:visible;fill-rule:evenodd;clip-rule:evenodd;fill:#93C13E;"/>
	<clipPath id="SVGID_12_">
		<use xlink:href="#SVGID_11_"  style="overflow:visible;"/>
	</clipPath>
</g>
<g>
	<defs>
		<path id="SVGID_13_" d="M881.6,642.2c-2.5,27-8.1,144,48.2,182c56.3,38,123.4-41.9,85.6-96.3c-37.7-54.5-64.1-90.2-80.3-101.7
			c-16.2-11.5-51.5-33.5-53.5,0C881.6,626.1,884.2,615.2,881.6,642.2L881.6,642.2z"/>
	</defs>
	<use xlink:href="#SVGID_13_"  style="overflow:visible;fill-rule:evenodd;clip-rule:evenodd;fill:#93C13E;"/>
	<clipPath id="SVGID_14_">
		<use xlink:href="#SVGID_13_"  style="overflow:visible;"/>
	</clipPath>
</g>
<g>
	<defs>
		<path id="SVGID_15_" d="M769.2,337.1c-7.1,34.5-15.1,123.6,16.1,171.3c31.1,47.7,86.8,43.9,107.1-5.4
			c20.2-49.3-16.1-74.9-16.1-74.9s-68.3-70-74.9-80.3C794.7,337.5,776.3,302.6,769.2,337.1L769.2,337.1z"/>
	</defs>
	<use xlink:href="#SVGID_15_"  style="overflow:visible;fill-rule:evenodd;clip-rule:evenodd;fill:#93C13E;"/>
	<clipPath id="SVGID_16_">
		<use xlink:href="#SVGID_15_"  style="overflow:visible;"/>
	</clipPath>
</g>
<g>
	<defs>
		<path id="SVGID_17_" d="M1293.8,610.1c-28.1,26.9-106.1,91.5-101.7,149.9c4.4,58.4,32,69.9,48.2,74.9c16.2,5,64.4-7.5,80.3-53.5
			c15.9-46,8.6-123.1,10.7-144.5c2.1-21.4,2.6-61.5-26.8-37.5C1304.5,599.4,1321.9,583.2,1293.8,610.1L1293.8,610.1z"/>
	</defs>
	<use xlink:href="#SVGID_17_"  style="overflow:visible;fill-rule:evenodd;clip-rule:evenodd;fill:#93C13E;"/>
	<clipPath id="SVGID_18_">
		<use xlink:href="#SVGID_17_"  style="overflow:visible;"/>
	</clipPath>
</g>
<g>
	<defs>
		<path id="SVGID_19_" d="M1604.2,899.1c-69.5-1.6-164.9-26.5-203.4,74.9c0,0-11.2,100.4,91,69.6c0,0,46.4-7.6,101.7-69.6
			c0,0,21.2-33.1,32.1-37.5c10.9-4.4,21.6-26.3,0-32.1l-16.1-5.4C1609.6,899.1,1673.8,900.7,1604.2,899.1L1604.2,899.1z"/>
	</defs>
	<use xlink:href="#SVGID_19_"  style="overflow:visible;fill-rule:evenodd;clip-rule:evenodd;fill:#93C13E;"/>
	<clipPath id="SVGID_20_">
		<use xlink:href="#SVGID_19_"  style="overflow:visible;"/>
	</clipPath>
</g>
<g>
	<defs>
		<path id="SVGID_21_" d="M1882.6,781.3c-70,1.5-165.3-4.2-176.6,91c0,0,9.3,76.3,96.4,37.5c0,0,62.9-59.8,85.6-74.9
			c0,0,64-26.6,10.7-53.5h-10.7C1887.9,781.3,1952.5,779.9,1882.6,781.3L1882.6,781.3z"/>
	</defs>
	<use xlink:href="#SVGID_21_"  style="overflow:visible;fill-rule:evenodd;clip-rule:evenodd;fill:#93C13E;"/>
	<clipPath id="SVGID_22_">
		<use xlink:href="#SVGID_21_"  style="overflow:visible;"/>
	</clipPath>
</g>
<g>
	<defs>
		<path id="SVGID_23_" d="M571.2,631.5c15.2,58.2,59,188,144.5,219.5c85.5,31.5,137.4-79.1,91-133.8
			c-46.4-54.7-125.8-98.5-192.7-112.4c0,0-33.3-16.7-42.8,16.1v5.4C571.2,626.1,556,573.2,571.2,631.5L571.2,631.5z"/>
	</defs>
	<use xlink:href="#SVGID_23_"  style="overflow:visible;fill-rule:evenodd;clip-rule:evenodd;fill:#93C13E;"/>
	<clipPath id="SVGID_24_">
		<use xlink:href="#SVGID_23_"  style="overflow:visible;"/>
	</clipPath>
</g>
<g>
	<defs>
		<path id="SVGID_25_" d="M314.3,834.9c15.2,18.6,77.6,80.4,128.5,85.6c50.9,5.2,108.1-62,37.5-112.4c0,0-54.3-36.3-149.9-26.8
			c0,0-46.8,1.8-26.8,42.8C303.6,824.2,299,816.3,314.3,834.9L314.3,834.9z"/>
	</defs>
	<use xlink:href="#SVGID_25_"  style="overflow:visible;fill-rule:evenodd;clip-rule:evenodd;fill:#93C13E;"/>
	<clipPath id="SVGID_26_">
		<use xlink:href="#SVGID_25_"  style="overflow:visible;"/>
	</clipPath>
</g>
<g>
	<defs>
		<path id="SVGID_27_" d="M854.9,920.5c11.8,27.3,32.1,62.8,58.9,74.9c26.8,12.1,77.9,9.7,53.5-53.5c0,0-27.5-45.1-53.5-58.9
			c0,0-51.9-31.1-58.9-10.7c-7,20.4-5.3,32.1-5.3,32.1C849.5,904.5,843.1,893.2,854.9,920.5L854.9,920.5z"/>
	</defs>
	<use xlink:href="#SVGID_27_"  style="overflow:visible;fill-rule:evenodd;clip-rule:evenodd;fill:#93C13E;"/>
	<clipPath id="SVGID_28_">
		<use xlink:href="#SVGID_27_"  style="overflow:visible;"/>
	</clipPath>
</g>
<g>
	<defs>
		<path id="SVGID_29_" d="M571.2,915.2c22.2,25.1,67.1,124.5,192.7,128.5c0,0,99.9-40.1,16-123.1c0,0-61.1-50.5-187.3-21.4
			c0,0-9.4,4.5-16.1,10.7L571.2,915.2"/>
	</defs>
	<use xlink:href="#SVGID_29_"  style="overflow:visible;fill-rule:evenodd;clip-rule:evenodd;fill:#93C13E;"/>
	<clipPath id="SVGID_30_">
		<use xlink:href="#SVGID_29_"  style="overflow:visible;"/>
	</clipPath>
</g>
<g>
	<defs>
		<path id="SVGID_31_" d="M758.5,1118.6c24.9-11.4,75.9-50.1,112.4-32.1c36.5,18,42.2,74.6,5.4,91c-36.9,16.4-77.1-7.1-85.6-10.7
			c-8.6-3.6-25-12.6-32.1-21.4C751.4,1136.5,733.7,1130,758.5,1118.6L758.5,1118.6z"/>
	</defs>
	<use xlink:href="#SVGID_31_"  style="overflow:visible;fill-rule:evenodd;clip-rule:evenodd;fill:#93C13E;"/>
	<clipPath id="SVGID_32_">
		<use xlink:href="#SVGID_31_"  style="overflow:visible;"/>
	</clipPath>
</g>
<g>
	<defs>
		<path id="SVGID_33_" d="M383.9,1166.7c30.1,19.1,209.1,102.4,267.6,26.8c0,0,73.2-92-37.5-144.5c0,0-78.4-22-160.6,21.4
			c0,0-75.8,37-91,58.9c0,0-16.7,7.6,10.7,26.8C373.1,1156,353.8,1147.6,383.9,1166.7L383.9,1166.7z"/>
	</defs>
	<use xlink:href="#SVGID_33_"  style="overflow:visible;fill-rule:evenodd;clip-rule:evenodd;fill:#93C13E;"/>
	<clipPath id="SVGID_34_">
		<use xlink:href="#SVGID_33_"  style="overflow:visible;"/>
	</clipPath>
</g>
<g>
	<defs>
		<path id="SVGID_35_" d="M1829,1107.9c-37-13.3-176.9-104.8-267.6-26.8c-90.7,78,30.6,158.2,91,144.5
			c60.4-13.7,154.9-48.8,176.6-64.2c21.7-15.4,40.8-18.8,10.7-42.8C1839.7,1118.6,1866,1121.1,1829,1107.9L1829,1107.9z"/>
	</defs>
	<use xlink:href="#SVGID_35_"  style="overflow:visible;fill-rule:evenodd;clip-rule:evenodd;fill:#93C13E;"/>
	<clipPath id="SVGID_36_">
		<use xlink:href="#SVGID_35_"  style="overflow:visible;"/>
	</clipPath>
</g>
<g>
	<defs>
		<path id="SVGID_37_" d="M1449.8,1111.9c-31.8-21.3-90.7-45.9-122-17.2c-31.3,28.7-9.4,65.8,25.8,67s80.7-3.4,98.5-17.4
			c0,0,24.7-7.9,2.6-26.6C1432.5,1099,1481.6,1133.2,1449.8,1111.9L1449.8,1111.9z"/>
	</defs>
	<use xlink:href="#SVGID_37_"  style="overflow:visible;fill-rule:evenodd;clip-rule:evenodd;fill:#93C13E;"/>
	<clipPath id="SVGID_38_">
		<use xlink:href="#SVGID_37_"  style="overflow:visible;"/>
	</clipPath>
</g>
<g>
	<defs>
		<path id="SVGID_39_" d="M1636.4,1338c-21.1-28.1-73.8-105.7-133.8-117.8c-60-12-68.5,8.1-85.6,32.1c-17.1,24-13.7,77.1,26.8,91
			c40.4,13.9,103.1,19.4,144.5,16.1c0,0,37.2,1,42.8,0C1636.6,1358.4,1639.8,1342.6,1636.4,1338L1636.4,1338z"/>
	</defs>
	<use xlink:href="#SVGID_39_"  style="overflow:visible;fill-rule:evenodd;clip-rule:evenodd;fill:#93C13E;"/>
	<clipPath id="SVGID_40_">
		<use xlink:href="#SVGID_39_"  style="overflow:visible;"/>
	</clipPath>
</g>
<g>
	<defs>
		<path id="SVGID_41_" d="M1342,1000.8c0,0-168.9-121.4-299.7,5.4c-130.8,126.8-86,377.1-85.6,417.5c0.3,40.3,28.2,235.1,10.7,369.3
			h149.9c0,0,3.2-264.1-5.3-374.7c-8.5-110.6-22.7-270.6,42.8-380C1154.6,1038.3,1196.7,951.7,1342,1000.8L1342,1000.8z"/>
	</defs>
	<use xlink:href="#SVGID_41_"  style="overflow:visible;fill-rule:evenodd;clip-rule:evenodd;fill:#683C17;"/>
	<clipPath id="SVGID_42_">
		<use xlink:href="#SVGID_41_"  style="overflow:visible;"/>
	</clipPath>
</g>
<g>
	<defs>
		<path id="SVGID_43_" d="M1127.9,1263.1v123.1c0,0,132.1-169.1,192.7-80.3C1320.5,1305.9,1292.9,1198,1127.9,1263.1L1127.9,1263.1z
			"/>
	</defs>
	<use xlink:href="#SVGID_43_"  style="overflow:visible;fill-rule:evenodd;clip-rule:evenodd;fill:#835E3C;"/>
	<clipPath id="SVGID_44_">
		<use xlink:href="#SVGID_43_"  style="overflow:visible;"/>
	</clipPath>
</g>
<g>
	<defs>
		<path id="SVGID_45_" d="M1086,51.7c556.7,0,1008,451.3,1008,1008c0,556.7-451.3,1008-1008,1008c-556.7,0-1008-451.3-1008-1008
			C78,503,529.3,51.7,1086,51.7L1086,51.7z"/>
	</defs>
	<clipPath id="SVGID_46_">
		<use xlink:href="#SVGID_45_"  style="overflow:visible;"/>
	</clipPath>
	
		<use xlink:href="#SVGID_45_"  style="overflow:visible;fill-rule:evenodd;clip-rule:evenodd;fill:none;stroke:#6A9940;stroke-width:44;stroke-miterlimit:10;"/>
</g>
<g>
	<defs>
		<path id="SVGID_47_" d="M1079.7,406.7c-24.4,53.7-108.6,171.9-16.1,283.7c0,0,74.1,40.8,107.1-26.8c0,0,56.6-84.9-16.1-219.5
			l-26.8-42.8C1127.9,401.3,1100.3,361.3,1079.7,406.7L1079.7,406.7z"/>
	</defs>
	<use xlink:href="#SVGID_47_"  style="overflow:visible;fill-rule:evenodd;clip-rule:evenodd;fill:#93C13E;"/>
	<clipPath id="SVGID_48_">
		<use xlink:href="#SVGID_47_"  style="overflow:visible;"/>
	</clipPath>
</g>
<path class="st1" d="M587.3,1311.3c31.6-27.2,113.4-98.5,160.6-91c47.2,7.5,87.8,51.6,42.8,107.1c-44.9,55.4-140.9,37.8-160.6,37.5
	c-19.7-0.4-73.3-11.2-53.5-37.5C576.5,1327.3,555.6,1338.4,587.3,1311.3L587.3,1311.3z"/>
</svg>
